<?xml version="1.0" standalone="no"?>
<!DOCTYPE svg PUBLIC "-//W3C//DTD SVG 20010904//EN"
 "http://www.w3.org/TR/2001/REC-SVG-20010904/DTD/svg10.dtd">
<svg version="1.0" xmlns="http://www.w3.org/2000/svg"
 width="500.000000pt" height="200.000000pt" viewBox="0 0 500.000000 200.000000"
 preserveAspectRatio="xMidYMid meet">

<g transform="translate(0.000000,200.000000) scale(0.100000,-0.100000)"
fill="#a3e635" stroke="none">
<path d="M418 1428 c-3 -7 48 -96 113 -198 129 -201 138 -226 92 -259 -47 -35
-248 -158 -251 -156 -2 2 24 50 57 108 57 98 59 106 48 136 -6 17 -17 31 -23
31 -10 0 -57 -51 -299 -324 -187 -211 -185 -206 -90 -206 56 0 88 9 233 64
477 184 653 254 677 270 14 9 33 33 42 52 16 33 16 35 -3 62 -11 15 -63 63
-115 107 -52 44 -160 135 -240 202 -139 119 -146 123 -190 123 -29 0 -49 -5
-51 -12z"/>
<path d="M1462 1155 c-12 -9 -29 -30 -38 -47 -30 -58 -29 -58 245 -58 137 0
261 -4 275 -10 37 -14 46 -38 31 -84 -19 -54 -64 -107 -111 -131 -31 -16 -65
-20 -175 -23 l-137 -4 55 106 54 107 -112 -3 -112 -3 -74 -140 c-45 -86 -72
-150 -71 -165 l3 -25 245 -3 c279 -3 343 6 460 64 82 42 140 102 183 192 39
84 35 143 -14 185 -57 46 -85 50 -394 54 -254 3 -293 2 -313 -12z"/>
<path d="M2362 1154 c-29 -20 -234 -428 -230 -458 3 -21 4 -21 317 -24 346 -3
346 -3 371 59 23 55 7 59 -227 59 l-203 0 17 35 17 35 191 0 c209 0 221 3 245
60 23 56 11 60 -191 60 -99 0 -179 2 -179 5 0 4 7 19 15 35 l15 29 226 3 226
3 24 29 c16 18 24 38 22 55 l-3 26 -315 3 c-275 2 -318 0 -338 -14z"/>
<path d="M3096 1159 c-10 -6 -67 -113 -127 -236 -85 -176 -107 -229 -98 -239
15 -18 159 -19 181 -1 9 6 46 71 82 142 l65 130 0 -120 c1 -154 7 -165 93
-165 l61 0 144 143 144 142 -62 -127 c-75 -155 -74 -158 40 -158 46 0 84 5 94
13 24 18 229 436 225 461 -3 20 -9 21 -133 24 -81 2 -140 -2 -157 -9 -15 -6
-83 -69 -149 -140 -67 -71 -125 -129 -131 -129 -5 0 -8 56 -7 131 1 101 -2
134 -12 140 -20 12 -231 10 -253 -2z"/>
<path d="M4034 1152 c-30 -36 -227 -450 -221 -466 5 -13 23 -16 86 -16 44 0
87 3 96 6 22 9 237 440 233 468 -3 19 -10 21 -90 24 -75 2 -90 0 -104 -16z"/>
<path d="M4352 1158 c-7 -7 -12 -16 -12 -20 0 -5 27 -49 60 -98 33 -49 60 -93
60 -98 0 -5 -76 -55 -169 -111 -178 -107 -197 -121 -187 -146 4 -12 24 -15 96
-15 101 0 110 3 256 91 45 27 84 49 87 49 3 0 23 -26 43 -57 21 -32 44 -64 53
-70 23 -20 185 -17 205 3 9 8 16 18 16 21 0 3 -29 51 -66 105 -36 55 -64 104
-62 108 2 5 62 44 133 87 l130 79 3 43 3 43 -78 -4 c-75 -3 -81 -5 -180 -65
l-103 -62 -15 29 c-9 16 -29 46 -46 65 l-31 35 -92 0 c-58 0 -96 -4 -104 -12z"/>
</g>
</svg>
