<svg xmlns="http://www.w3.org/2000/svg" width="666.667" height="266.667" version="1.0" viewBox="0 0 500 200"><g fill="#a3e635"><path d="M41.8 57.2c-.3.7 4.8 9.6 11.3 19.8 12.9 20.1 13.8 22.6 9.2 25.9-4.7 3.5-24.8 15.8-25.1 15.6-.2-.2 2.4-5 5.7-10.8 5.7-9.8 5.9-10.6 4.8-13.6-.6-1.7-1.7-3.1-2.3-3.1-1 0-5.7 5.1-29.9 32.4C-3.2 144.5-3 144 6.5 144c5.6 0 8.8-.9 23.3-6.4 47.7-18.4 65.3-25.4 67.7-27 1.4-.9 3.3-3.3 4.2-5.2 1.6-3.3 1.6-3.5-.3-6.2-1.1-1.5-6.3-6.3-11.5-10.7-5.2-4.4-16-13.5-24-20.2C52 56.4 51.3 56 46.9 56c-2.9 0-4.9.5-5.1 1.2zM146.2 84.5c-1.2.9-2.9 3-3.8 4.7-3 5.8-2.9 5.8 24.5 5.8 13.7 0 26.1.4 27.5 1 3.7 1.4 4.6 3.8 3.1 8.4-1.9 5.4-6.4 10.7-11.1 13.1-3.1 1.6-6.5 2-17.5 2.3l-13.7.4 5.5-10.6 5.4-10.7-11.2.3-11.2.3-7.4 14c-4.5 8.6-7.2 15-7.1 16.5l.3 2.5 24.5.3c27.9.3 34.3-.6 46-6.4 8.2-4.2 14-10.2 18.3-19.2 3.9-8.4 3.5-14.3-1.4-18.5-5.7-4.6-8.5-5-39.4-5.4-25.4-.3-29.3-.2-31.3 1.2zM236.2 84.6c-2.9 2-23.4 42.8-23 45.8.3 2.1.4 2.1 31.7 2.4 34.6.3 34.6.3 37.1-5.9 2.3-5.5.7-5.9-22.7-5.9H239l1.7-3.5 1.7-3.5h19.1c20.9 0 22.1-.3 24.5-6 2.3-5.6 1.1-6-19.1-6-9.9 0-17.9-.2-17.9-.5 0-.4.7-1.9 1.5-3.5l1.5-2.9 22.6-.3 22.6-.3 2.4-2.9c1.6-1.8 2.4-3.8 2.2-5.5l-.3-2.6-31.5-.3c-27.5-.2-31.8 0-33.8 1.4zM309.6 84.1c-1 .6-6.7 11.3-12.7 23.6-8.5 17.6-10.7 22.9-9.8 23.9 1.5 1.8 15.9 1.9 18.1.1.9-.6 4.6-7.1 8.2-14.2l6.5-13v12c.1 15.4.7 16.5 9.3 16.5h6.1l14.4-14.3 14.4-14.2-6.2 12.7c-7.5 15.5-7.4 15.8 4 15.8 4.6 0 8.4-.5 9.4-1.3 2.4-1.8 22.9-43.6 22.5-46.1-.3-2-.9-2.1-13.3-2.4-8.1-.2-14 .2-15.7.9-1.5.6-8.3 6.9-14.9 14-6.7 7.1-12.5 12.9-13.1 12.9-.5 0-.8-5.6-.7-13.1.1-10.1-.2-13.4-1.2-14-2-1.2-23.1-1-25.3.2zM403.4 84.8c-3 3.6-22.7 45-22.1 46.6.5 1.3 2.3 1.6 8.6 1.6 4.4 0 8.7-.3 9.6-.6 2.2-.9 23.7-44 23.3-46.8-.3-1.9-1-2.1-9-2.4-7.5-.2-9 0-10.4 1.6zM435.2 84.2c-.7.7-1.2 1.6-1.2 2 0 .5 2.7 4.9 6 9.8s6 9.3 6 9.8-7.6 5.5-16.9 11.1c-17.8 10.7-19.7 12.1-18.7 14.6.4 1.2 2.4 1.5 9.6 1.5 10.1 0 11-.3 25.6-9.1 4.5-2.7 8.4-4.9 8.7-4.9.3 0 2.3 2.6 4.3 5.7 2.1 3.2 4.4 6.4 5.3 7 2.3 2 18.5 1.7 20.5-.3.9-.8 1.6-1.8 1.6-2.1 0-.3-2.9-5.1-6.6-10.5-3.6-5.5-6.4-10.4-6.2-10.8.2-.5 6.2-4.4 13.3-8.7l13-7.9.3-4.3.3-4.3-7.8.4c-7.5.3-8.1.5-18 6.5L464 95.9l-1.5-2.9c-.9-1.6-2.9-4.6-4.6-6.5l-3.1-3.5h-9.2c-5.8 0-9.6.4-10.4 1.2z"/></g></svg>